<svg xmlns="http://www.w3.org/2000/svg" xml:space="preserve" width="24" height="24" style="shape-rendering:geometricPrecision;text-rendering:geometricPrecision;image-rendering:optimizeQuality;fill-rule:evenodd;clip-rule:evenodd" viewBox="0 0 140.98 140.98">
  <defs>
    <style>
      .fil0{fill:#474a1d}.fil1{fill:#f49600}
    </style>
  </defs>
  <g id="Layer_x0020_1">
    <path class="fil0" d="M0 71.03c.14 17.12 6.46 33.45 17.93 46.26l.42.45h.01l1.09 1.16.01.01.04.03c.02.01.04.03.06.05l.76.68c2.84 2.25 5.67 3.54 9.21 4.34 2.25.5 4.89.73 7.19.77 2.25.04 4.58-.18 6.81-.46.91-.11 1.82-.23 2.72-.39 3.64-.64 7.09-1.94 9.98-4.26 3.11-2.48 5.34-5.56 6.81-9.23 2.91-7.24 3-14.88 3.23-22.56.03-.78.01-1.56.04-2.35.1-4.21-.13-8.65-.16-12.9-.06-6.36-.08-12.72-.13-19.07-.12-14.01-.64-28.22-.39-42.2.04-2.33.77-9.15-.74-10.71-.96-.99-3.14-.4-4.33-.15-4.16.79-9.4 2.16-13.43 3.52l-.35.12C33.82 8.75 23.32 16.58 14.86 27.31 5.08 39.93 0 55.13 0 71.03z"/>
    <path class="fil0" d="M121.24 120.57a70.777 70.777 0 0 0 14.89-21.36c3.51-8.08 5.02-12.77 4.84-21.92-.02-.73-.01-1.14 0-1.35.01-.23.01-.18-.52-.18l-3.81-.01c-6.73 0-51.83.11-59.05 0-.29 0-.46.06-.52.09-.42.24-.67 1.23-.8 2.56-.37 3.56.14 7.02-.1 10.45-1.85 22.63-3.36 40.86-30.92 45.03-4.2.64-3.26 1.16.16 2.5 12.34 4.84 27.43 5.81 40.4 3.16 13.6-2.83 25.46-9.42 35.43-18.97z"/>
    <path class="fil1" d="M82.93 28.61c3.38 6.28 7.71 11.99 12.89 17.08 11.78 11.18 24.56 17.54 40.68 19.76 3.21.44 4.46-.16 4.46-1.61l.01-5.36V4.53c0-4.42.23-4.42-3.79-4.43-4.78 0-49.81-.22-59.64-.01h-2.1c-.64 0-1.17.53-1.17 1.17v63.33h8.66V28.61z"/>
    <path class="fil1" d="M78.12 1.94h60.2V.1h-60.2z"/>
  </g>
</svg>
